<?xml version="1.0" encoding="UTF-8"?><svg id="Layer_2" xmlns="http://www.w3.org/2000/svg" xmlns:xlink="http://www.w3.org/1999/xlink" viewBox="0 0 401.08 549.17"><defs><style>.cls-1{fill:url(#linear-gradient-5);}.cls-2{fill:url(#linear-gradient-4);}.cls-3{fill:url(#linear-gradient-3);}.cls-4{fill:url(#linear-gradient-2);}.cls-5{fill:url(#linear-gradient);}</style><linearGradient id="linear-gradient" x1="307.01" y1="262.63" x2="307.01" y2="105.47" gradientUnits="userSpaceOnUse"><stop offset="0" stop-color="#e46975"/><stop offset="1" stop-color="#ffb04d"/></linearGradient><linearGradient id="linear-gradient-2" x1="353.69" y1="302.27" x2="353.69" y2="72.28" xlink:href="#linear-gradient"/><linearGradient id="linear-gradient-3" x1="9.64" y1="108.96" x2="329.01" y2="108.96" gradientUnits="userSpaceOnUse"><stop offset="0" stop-color="#3f93e3"/><stop offset="1" stop-color="#5dbcb8"/></linearGradient><linearGradient id="linear-gradient-4" x1="66.94" y1="272.54" x2="268.14" y2="272.54" gradientUnits="userSpaceOnUse"><stop offset="0" stop-color="#3f93e3"/><stop offset="1" stop-color="#b961b3"/></linearGradient><linearGradient id="linear-gradient-5" x1="11.55" y1="299.85" x2="307.76" y2="299.85" xlink:href="#linear-gradient-4"/></defs><path d="M364.75,329.49l-95.11-95.12c7.94-12.59,12.55-27.49,12.55-43.47,0-45.09-36.55-81.65-81.65-81.65-35.63,0-65.9,22.83-77.05,54.65h19.65c10.14-21.53,32.03-36.44,57.41-36.44,35.03,0,63.44,28.4,63.44,63.44s-28.4,63.44-63.44,63.44c-25.38,0-47.26-14.91-57.41-36.44h-19.65c11.15,31.82,41.43,54.64,77.05,54.64,16.07,0,31.05-4.66,43.68-12.68l95.08,95.08c7.03,7.03,18.43,7.03,25.46,0,7.03-7.03,7.03-18.43,0-25.46Z"/><path class="cls-5" d="M303.05,105.47l-25.83,25.83c14.47,17.32,23.17,39.62,23.17,63.96,0,14.34-3.03,27.97-8.47,40.3l27.09,27.09c11.33-19.87,17.81-42.87,17.81-67.38,0-34.39-12.75-65.8-33.77-89.78Z"/><path class="cls-4" d="M350.13,76.64c-4.31-5.43-12.41-5.84-17.31-.95l-16.88,16.88c24.3,27.29,39.08,63.26,39.08,102.68,0,29.57-8.31,57.2-22.72,80.68l26.34,26.34c20.7-30.52,32.8-67.36,32.8-107.02,0-44.82-15.45-86.04-41.31-118.61Z"/><path class="cls-3" d="M175.06,199.9c3.71,10.49,13.71,18.02,25.48,18.02,14.92,0,27.02-12.1,27.02-27.02s-12.1-27.02-27.02-27.02c-11.76,0-21.77,7.52-25.48,18.02h-73.97c4.55-50.93,47.33-90.85,99.45-90.85,24.33,0,46.63,8.71,63.95,23.17l25.83-25.83c-23.98-21.02-55.39-33.76-89.78-33.76-72.24,0-131.34,56.21-135.97,127.27h-18.24C50.98,100.77,118.24,36.42,200.54,36.42c39.42,0,75.38,14.77,102.68,39.07l25.79-25.79C295.09,18.82,250.01,0,200.54,0,98.12,0,14.55,80.65,9.85,181.9h-.13v3.34c-.05,1.88-.09,3.77-.09,5.66,0,1.31.02,2.61.05,3.92h.04c0,2.81,2.28,5.08,5.08,5.08h160.25Z"/><path class="cls-2" d="M200.54,290.76c-45.79,0-84.38-30.82-96.16-72.85h-37.44c12.53,62.33,67.58,109.27,133.59,109.27,24.6,0,47.68-6.52,67.61-17.93l-27.07-27.07c-12.39,5.51-26.1,8.58-40.54,8.58Z"/><path class="cls-1" d="M200.54,345.38c-76.11,0-139.36-55.04-152.13-127.48H11.55c13.12,92.64,92.73,163.9,188.99,163.9,39.75,0,76.66-12.15,107.22-32.94l-26.33-26.33c-23.53,14.49-51.23,22.85-80.89,22.85Z"/><path d="M36.21,528.86l-20.77-63.25v63.25H0v-84.14h24.14l20.43,65.57,19.85-65.57h24.37v84.14h-15.44v-63.25l-20.66,63.25h-16.48Z"/><path d="M123.48,530.37c-11.95,0-22.52-6.96-22.52-18.22,0-14.86,16.6-19.27,41.08-22.05v-1.16c0-9.63-5.11-12.88-11.95-12.88s-11.95,3.25-12.3,10.1h-14.97c1.16-12.3,11.95-21.35,27.85-21.35s27.39,6.27,27.39,27.39c0,1.97-.23,10.33-.23,16.02,0,9.87.7,15.44,1.86,20.66h-14.74c-.46-1.97-.93-4.99-1.16-8.01-4.41,6.62-10.91,9.52-20.31,9.52ZM142.51,500.31c-17.87,1.86-25.07,3.95-25.07,10.91,0,4.53,3.6,8.24,10.79,8.24,9.98,0,14.28-5.8,14.28-16.02v-3.13Z"/><path d="M173.61,449.47h16.02v16.94h13v11.03h-13v32.26c0,6.38,2.21,7.66,7.89,7.66h4.87v11.49h-11.72c-14.28,0-17.06-4.41-17.06-16.83v-34.59h-8.82v-11.03h8.82v-16.94Z"/><path d="M267.73,487.77h-15.32c-1.16-5.92-6.27-10.33-12.65-10.33-8.7,0-14.62,7.08-14.62,20.08s5.57,20.43,14.74,20.43c5.8,0,11.03-2.79,13.11-10.33h15.32c-3.71,17.06-16.02,22.75-29.25,22.75-19.03,0-30.29-13.81-30.29-32.61s11.95-32.73,30.99-32.73c13.35,0,25.88,7.2,27.97,22.75Z"/><path d="M293.84,474.66c3.6-6.27,10.45-9.63,18.1-9.63,14.97,0,21.59,9.17,21.59,24.49v39.34h-16.02v-35.86c0-8.12-1.74-15.09-10.79-15.09-10.56,0-12.88,8.59-12.88,18.45v32.5h-16.02v-84.14h16.02v29.94Z"/><path d="M345.37,549.17v-12.3h6.04c5.34,0,7.78.12,10.45-6.5l.7-1.74-23.91-62.21h17.52l14.16,45.03,14.51-45.03h16.25l-22.86,60.58c-7.31,19.38-10.56,22.17-26.11,22.17h-6.73Z"/></svg>